<svg xmlns="http://www.w3.org/2000/svg" viewBox="0 0 200 60" preserveAspectRatio="none">
  <defs>
    <pattern id="eggPattern" x="0" y="0" width="100" height="60" patternUnits="userSpaceOnUse">
      <!-- Egg 1 - Pink -->
      <ellipse cx="10" cy="45" rx="8" ry="12" fill="#ec4899" opacity="0.9"/>
      
      <!-- Egg 2 - Purple -->
      <ellipse cx="30" cy="45" rx="8" ry="12" fill="#8b5cf6" opacity="0.9"/>
      
      <!-- Egg 3 - Orange -->
      <ellipse cx="50" cy="45" rx="8" ry="12" fill="#f97316" opacity="0.9"/>
      
      <!-- Egg 4 - Teal -->
      <ellipse cx="70" cy="45" rx="8" ry="12" fill="#14b8a6" opacity="0.9"/>
      
      <!-- Egg 5 - Yellow -->
      <ellipse cx="90" cy="45" rx="8" ry="12" fill="#eab308" opacity="0.9"/>
      
      <!-- Decorative dots on eggs -->
      <circle cx="10" cy="38" r="1.5" fill="white" opacity="0.8"/>
      <circle cx="10" cy="48" r="1.2" fill="white" opacity="0.8"/>
      <circle cx="10" cy="52" r="1" fill="white" opacity="0.8"/>
      
      <circle cx="30" cy="38" r="1.5" fill="white" opacity="0.8"/>
      <circle cx="30" cy="48" r="1.2" fill="white" opacity="0.8"/>
      <circle cx="30" cy="52" r="1" fill="white" opacity="0.8"/>
      
      <circle cx="50" cy="38" r="1.5" fill="white" opacity="0.8"/>
      <circle cx="50" cy="48" r="1.2" fill="white" opacity="0.8"/>
      <circle cx="50" cy="52" r="1" fill="white" opacity="0.8"/>
      
      <circle cx="70" cy="38" r="1.5" fill="white" opacity="0.8"/>
      <circle cx="70" cy="48" r="1.2" fill="white" opacity="0.8"/>
      <circle cx="70" cy="52" r="1" fill="white" opacity="0.8"/>
      
      <circle cx="90" cy="38" r="1.5" fill="white" opacity="0.8"/>
      <circle cx="90" cy="48" r="1.2" fill="white" opacity="0.8"/>
      <circle cx="90" cy="52" r="1" fill="white" opacity="0.8"/>
      
      <!-- Zigzag patterns -->
      <path d="M 5 42 L 8 44 L 12 42 L 15 44" stroke="white" stroke-width="1" fill="none" opacity="0.6"/>
      <path d="M 25 42 L 28 44 L 32 42 L 35 44" stroke="white" stroke-width="1" fill="none" opacity="0.6"/>
      <path d="M 45 42 L 48 44 L 52 42 L 55 44" stroke="white" stroke-width="1" fill="none" opacity="0.6"/>
      <path d="M 65 42 L 68 44 L 72 42 L 75 44" stroke="white" stroke-width="1" fill="none" opacity="0.6"/>
      <path d="M 85 42 L 88 44 L 92 42 L 95 44" stroke="white" stroke-width="1" fill="none" opacity="0.6"/>
    </pattern>
  </defs>
  
  <rect width="100%" height="100%" fill="url(#eggPattern)"/>
</svg>